<?xml version="1.0" encoding="UTF-8" standalone="no"?>
<svg
   viewBox="0 0 512 512"
   version="1.1"
   id="svg1"
   width="512"
   height="512"
   xmlns="http://www.w3.org/2000/svg"
   xmlns:svg="http://www.w3.org/2000/svg"
   xmlns:rdf="http://www.w3.org/1999/02/22-rdf-syntax-ns#"
   xmlns:cc="http://creativecommons.org/ns#">
  <defs
     id="defs1" />
  <g
     fill="#000000"
     id="g1"
     transform="matrix(9.2753305,0,0,9.2805742,-207.53552,-208.81292)">
    <path
       d="m 28.849,77.669 c -3.569,0 -6.473,-2.903 -6.473,-6.473 0,-1.729 0.673,-3.354 1.896,-4.577 L 38.906,51.985 35.178,48.259 c -0.032,-0.025 -0.062,-0.052 -0.092,-0.081 -0.029,-0.029 -0.056,-0.06 -0.081,-0.091 l -3.982,-3.979 c -0.026,-0.021 -0.052,-0.044 -0.077,-0.069 -0.024,-0.024 -0.047,-0.05 -0.069,-0.076 L 26.859,39.948 C 26.841,39.933 26.824,39.917 26.807,39.9 26.79,39.883 26.774,39.866 26.759,39.849 l -4.091,-4.087 c -0.188,-0.188 -0.293,-0.442 -0.293,-0.708 0,-0.265 0.105,-0.52 0.293,-0.707 L 34.221,22.793 c 0.375,-0.375 1.05,-0.375 1.425,0 l 16.231,16.219 9.826,-9.826 c 10e-4,-0.001 0,-0.004 0.002,-0.002 0.003,-0.001 0.003,-0.002 0.003,-0.003 0.001,0 0.001,0 0.001,0 0.064,-0.064 0.137,-0.117 0.212,-0.16 l 10.455,-6.173 c 0.035,-0.021 0.072,-0.039 0.109,-0.056 0.445,-0.194 0.919,-0.292 1.407,-0.292 1.945,0 3.527,1.582 3.527,3.527 0,0.476 -0.094,0.938 -0.278,1.374 -0.022,0.052 -0.048,0.101 -0.077,0.146 L 71.031,38.11 c -0.045,0.083 -0.103,0.161 -0.173,0.23 -0.077,0.077 -0.163,0.139 -0.255,0.186 -0.679,0.749 -2.197,2.267 -5.594,5.664 l -3.974,3.973 15.847,15.833 c 0.274,0.089 0.503,0.294 0.617,0.569 0.155,0.374 0.069,0.804 -0.217,1.09 L 65.73,77.208 c -0.188,0.188 -0.441,0.293 -0.707,0.293 h -0.168 c -0.265,0 -0.52,-0.105 -0.707,-0.293 L 48.063,61.136 33.426,75.773 c -1.224,1.223 -2.849,1.896 -4.577,1.896 z m -3.791,-8.85 c -0.444,0.705 -0.682,1.522 -0.682,2.377 0,2.466 2.006,4.473 4.473,4.473 0.854,0 1.671,-0.237 2.377,-0.682 z m 37.176,3.65 2.705,2.702 10.145,-10.146 -15.462,-15.448 -10.144,10.145 3.061,3.059 3.395,-3.395 c 0.391,-0.391 1.023,-0.391 1.414,0 0.391,0.391 0.391,1.023 0,1.414 l -3.394,3.394 2.726,2.724 3.393,-3.393 c 0.391,-0.391 1.023,-0.391 1.414,0 0.391,0.391 0.391,1.023 0,1.414 l -3.393,3.393 2.727,2.724 3.391,-3.391 c 0.391,-0.391 1.023,-0.391 1.414,0 0.391,0.391 0.391,1.023 0,1.414 z m -35.841,-5.143 6.326,6.326 C 37.414,68.957 64.046,42.325 68.738,37.633 L 62.412,31.307 Z M 37.213,47.466 40.32,50.57 50.464,40.426 34.935,24.909 24.791,35.053 l 2.727,2.725 3.325,-3.325 c 0.391,-0.391 1.023,-0.391 1.414,0 0.391,0.391 0.391,1.023 0,1.414 l -3.324,3.324 2.726,2.724 3.323,-3.323 c 0.391,-0.391 1.023,-0.391 1.414,0 0.391,0.391 0.391,1.023 0,1.414 l -3.322,3.323 2.726,2.724 3.322,-3.321 c 0.391,-0.391 1.023,-0.391 1.414,0 0.391,0.391 0.391,1.023 0,1.414 z M 64.03,30.099 69.933,36 72.917,30.776 69.192,27.05 Z m 6.941,-4.098 2.975,2.975 1.377,-2.41 c 0.065,-0.172 0.099,-0.353 0.099,-0.539 0,-0.842 -0.686,-1.527 -1.527,-1.527 -0.194,0 -0.382,0.035 -0.559,0.105 z"
       id="path1" />
  </g>
  <metadata
     id="metadata6">
    <rdf:RDF>
      <cc:Work
         rdf:about="" />
    </rdf:RDF>
  </metadata>
</svg>
